<?xml version="1.0" standalone="no"?>
<!DOCTYPE svg PUBLIC "-//W3C//DTD SVG 20010904//EN"
 "http://www.w3.org/TR/2001/REC-SVG-20010904/DTD/svg10.dtd">
<svg version="1.0" xmlns="http://www.w3.org/2000/svg"
 width="700.000000pt" height="700.000000pt" viewBox="0 0 700.000000 700.000000"
 preserveAspectRatio="xMidYMid meet">
<metadata>
Created by potrace 1.14, written by Peter Selinger 2001-2017
</metadata>
<g transform="translate(0.000000,700.000000) scale(0.100000,-0.100000)"
fill="#000000" stroke="none">
<path d="M2950 5734 c-14 -9 -33 -28 -41 -43 -9 -14 -55 -93 -103 -176 -47
-82 -90 -157 -96 -165 -5 -8 -28 -49 -52 -90 -23 -41 -47 -83 -53 -92 -5 -9
-26 -45 -46 -80 -54 -94 -67 -116 -184 -318 -59 -102 -119 -205 -133 -230 -37
-66 -121 -213 -132 -230 -5 -8 -22 -37 -38 -65 -16 -27 -38 -66 -49 -85 -11
-19 -46 -80 -78 -135 -31 -55 -65 -113 -75 -130 -10 -16 -41 -70 -69 -120 -28
-49 -56 -97 -61 -105 -6 -8 -13 -22 -17 -30 -4 -8 -24 -43 -45 -78 -21 -34
-38 -64 -38 -66 0 -2 -17 -33 -38 -67 -22 -35 -50 -84 -64 -109 -44 -78 -140
-244 -154 -267 -8 -13 -13 -24 -12 -25 2 -2 -7 -16 -18 -33 -12 -16 -99 -165
-194 -330 -95 -165 -246 -426 -335 -580 -409 -708 -399 -688 -398 -726 1 -47
26 -85 65 -98 22 -8 912 -11 3010 -11 2764 0 2983 1 3015 17 41 19 63 62 56
107 -3 17 -37 85 -75 151 -39 66 -79 136 -90 155 -11 19 -32 55 -47 80 -14 25
-33 57 -41 71 -43 76 -152 266 -160 279 -14 22 -74 126 -420 725 -341 588
-324 559 -402 695 -30 52 -68 118 -85 146 -17 27 -41 70 -55 95 -89 158 -283
487 -295 501 -45 50 -132 43 -169 -14 -12 -18 -61 -103 -109 -188 -101 -180
-144 -255 -165 -291 -8 -14 -39 -69 -68 -122 -29 -54 -55 -97 -57 -97 -3 0
-114 189 -182 310 -11 19 -78 134 -148 255 -249 430 -353 610 -372 645 -11 19
-88 152 -170 295 -83 143 -160 276 -170 295 -11 19 -40 69 -65 110 -24 41 -47
82 -51 90 -4 8 -21 38 -37 65 -17 28 -36 60 -42 72 -12 25 -65 53 -100 53 -12
0 -34 -8 -48 -16z"/>
</g>
</svg>
